<?xml version="1.0" encoding="UTF-8"?>
<svg id="Ebene_2" data-name="Ebene 2" xmlns="http://www.w3.org/2000/svg" xmlns:xlink="http://www.w3.org/1999/xlink" viewBox="0 0 683.75 782.32">
  <defs>
    <style>
      .cls-1 {
        fill: none;
      }

      .cls-2 {
        fill: #93c780;
      }

      .cls-3 {
        fill: url(#pastelgrün_fein);
      }
    </style>
    <pattern id="pastelgrün_fein" data-name="pastelgrün fein" x="0" y="0" width="28.8" height="28.8" patternTransform="translate(-1034.44 229.52)" patternUnits="userSpaceOnUse" viewBox="0 0 28.8 28.8">
      <g>
        <rect class="cls-1" x="0" y="0" width="28.8" height="28.8"/>
        <path class="cls-2" d="M28.75,22.16c.4,0,.72-.32,.72-.72s-.32-.72-.72-.72-.72,.32-.72,.72,.32,.72,.72,.72Z"/>
        <g>
          <circle class="cls-2" cx="28.8" cy="28.8" r=".72"/>
          <path class="cls-2" d="M14.4,29.52c.4,0,.72-.32,.72-.72s-.32-.72-.72-.72-.72,.32-.72,.72,.32,.72,.72,.72Z"/>
          <path class="cls-2" d="M28.8,15.12c.4,0,.72-.32,.72-.72s-.32-.72-.72-.72-.72,.32-.72,.72,.32,.72,.72,.72Z"/>
          <path class="cls-2" d="M14.4,15.12c.4,0,.72-.32,.72-.72s-.32-.72-.72-.72-.72,.32-.72,.72,.32,.72,.72,.72Z"/>
          <path class="cls-2" d="M7.2,22.32c.4,0,.72-.32,.72-.72s-.32-.72-.72-.72-.72,.32-.72,.72,.32,.72,.72,.72Z"/>
          <path class="cls-2" d="M21.6,22.32c.4,0,.72-.32,.72-.72s-.32-.72-.72-.72-.72,.32-.72,.72,.32,.72,.72,.72Z"/>
          <path class="cls-2" d="M7.2,7.92c.4,0,.72-.32,.72-.72s-.32-.72-.72-.72-.72,.32-.72,.72,.32,.72,.72,.72Z"/>
          <path class="cls-2" d="M21.6,7.92c.4,0,.72-.32,.72-.72s-.32-.72-.72-.72-.72,.32-.72,.72,.32,.72,.72,.72Z"/>
          <path class="cls-2" d="M10.82,18.46c.4,0,.72-.32,.72-.72s-.32-.72-.72-.72-.72,.32-.72,.72,.32,.72,.72,.72Z"/>
          <path class="cls-2" d="M3.62,25.66c.4,0,.72-.32,.72-.72s-.32-.72-.72-.72-.72,.32-.72,.72,.32,.72,.72,.72Z"/>
          <path class="cls-2" d="M-.05,22.16c.4,0,.72-.32,.72-.72s-.32-.72-.72-.72-.72,.32-.72,.72,.32,.72,.72,.72Z"/>
          <path class="cls-2" d="M18.02,11.26c.4,0,.72-.32,.72-.72s-.32-.72-.72-.72-.72,.32-.72,.72,.32,.72,.72,.72Z"/>
          <path class="cls-2" d="M25.59,4.42c.4,0,.72-.32,.72-.72s-.32-.72-.72-.72-.72,.32-.72,.72,.32,.72,.72,.72Z"/>
          <circle class="cls-2" cx="25.14" cy="25.3" r=".72"/>
          <circle class="cls-2" cx="22.04" cy="28.8" r=".72"/>
          <path class="cls-2" d="M10.73,26.02c.4,0,.72-.32,.72-.72s-.32-.72-.72-.72-.72,.32-.72,.72,.32,.72,.72,.72Z"/>
          <path class="cls-2" d="M7.15,29.28c.4,0,.72-.32,.72-.72s-.32-.72-.72-.72-.72,.32-.72,.72,.32,.72,.72,.72Z"/>
          <path class="cls-2" d="M25.14,11.62c.4,0,.72-.32,.72-.72s-.32-.72-.72-.72-.72,.32-.72,.72,.32,.72,.72,.72Z"/>
          <path class="cls-2" d="M28.72,7.95c.4,0,.72-.32,.72-.72s-.32-.72-.72-.72-.72,.32-.72,.72,.32,.72,.72,.72Z"/>
          <path class="cls-2" d="M21.97,15.37c.4,0,.72-.32,.72-.72s-.32-.72-.72-.72-.72,.32-.72,.72,.32,.72,.72,.72Z"/>
          <path class="cls-2" d="M25.8,18.95c.4,0,.72-.32,.72-.72s-.32-.72-.72-.72-.72,.32-.72,.72,.32,.72,.72,.72Z"/>
          <path class="cls-2" d="M10.73,11.62c.4,0,.72-.32,.72-.72s-.32-.72-.72-.72-.72,.32-.72,.72,.32,.72,.72,.72Z"/>
          <path class="cls-2" d="M10.7,4.25c.4,0,.72-.32,.72-.72s-.32-.72-.72-.72-.72,.32-.72,.72,.32,.72,.72,.72Z"/>
          <path class="cls-2" d="M14.24,7.95c.4,0,.72-.32,.72-.72s-.32-.72-.72-.72-.72,.32-.72,.72,.32,.72,.72,.72Z"/>
          <path class="cls-2" d="M3.54,18.82c.4,0,.72-.32,.72-.72s-.32-.72-.72-.72-.72,.32-.72,.72,.32,.72,.72,.72Z"/>
          <path class="cls-2" d="M17.93,18.82c.4,0,.72-.32,.72-.72s-.32-.72-.72-.72-.72,.32-.72,.72,.32,.72,.72,.72Z"/>
          <path class="cls-2" d="M17.93,25.25c.4,0,.72-.32,.72-.72s-.32-.72-.72-.72-.72,.32-.72,.72,.32,.72,.72,.72Z"/>
          <path class="cls-2" d="M3.54,10.85c.4,0,.72-.32,.72-.72s-.32-.72-.72-.72-.72,.32-.72,.72,.32,.72,.72,.72Z"/>
          <path class="cls-2" d="M7.07,14.55c.4,0,.72-.32,.72-.72s-.32-.72-.72-.72-.72,.32-.72,.72,.32,.72,.72,.72Z"/>
          <path class="cls-2" d="M14.27,21.75c.4,0,.72-.32,.72-.72s-.32-.72-.72-.72-.72,.32-.72,.72,.32,.72,.72,.72Z"/>
          <path class="cls-2" d="M3.54,4.42c.4,0,.72-.32,.72-.72s-.32-.72-.72-.72-.72,.32-.72,.72,.32,.72,.72,.72Z"/>
          <path class="cls-2" d="M17.93,4.42c.4,0,.72-.32,.72-.72s-.32-.72-.72-.72-.72,.32-.72,.72,.32,.72,.72,.72Z"/>
        </g>
        <g>
          <circle class="cls-2" cx="0" cy="28.8" r=".72"/>
          <path class="cls-2" d="M0,15.12c.4,0,.72-.32,.72-.72S.4,13.68,0,13.68s-.72,.32-.72,.72S-.4,15.12,0,15.12Z"/>
          <path class="cls-2" d="M-.08,7.95c.4,0,.72-.32,.72-.72s-.32-.72-.72-.72-.72,.32-.72,.72,.32,.72,.72,.72Z"/>
        </g>
        <g>
          <circle class="cls-2" cx="28.8" cy="0" r=".72"/>
          <path class="cls-2" d="M14.4,.72c.4,0,.72-.32,.72-.72s-.32-.72-.72-.72S13.68-.4,13.68,0s.32,.72,.72,.72Z"/>
          <circle class="cls-2" cx="22.04" cy="0" r=".72"/>
          <path class="cls-2" d="M7.15,.48c.4,0,.72-.32,.72-.72s-.32-.72-.72-.72-.72,.32-.72,.72,.32,.72,.72,.72Z"/>
        </g>
        <circle class="cls-2" cx="0" cy="0" r=".72"/>
      </g>
    </pattern>
  </defs>
  <g id="Ebene_1-2" data-name="Ebene 1">
    <path class="cls-3" d="M188.48,18.34S-103.87,343.38,39.63,433.62c143.5,90.24,273.57,82.87,277.82,203.15,4.25,120.28,65.2,189.45,191.34,114.33,126.14-75.12,240.95-568.35,130.39-661.89C528.63-4.33,233.45-17.49,188.48,18.34"/>
  </g>
</svg>